<svg id="Layer_1" data-name="Layer 1" xmlns="http://www.w3.org/2000/svg" viewBox="0 0 342 556"><defs><style>.cls-1{fill:#e54040;}</style></defs><path class="cls-1" d="M260.15,215.77a19.06,19.06,0,0,1-14.71,8.73L160.09,210,116,224.5l85.34,14.56c41.21,5.82,53-14.56,53-14.56Z" transform="translate(-10 -12)"/><polyline class="cls-1" points="0 2.91 11.77 346.41 11.77 2.91 0 2.91 212.91 30.34 260 21.61 55.92 0"/><polyline class="cls-1" points="65.76 68.18 64.75 133.91 105.95 128.08 106.97 74.01"/><polyline class="cls-1" points="64.75 180.48 61.8 366.79 105.95 349.32 105.95 186.3"/><polyline class="cls-1" points="212.91 30.34 212.91 85.65 260 74.01 260 21.61"/><path class="cls-1" d="M116,96.42l124.28,14.67s75.84,1.66,78.78,85.19a81.23,81.23,0,0,1-8.83,42.78c-12.81,24.7-34.54,35-41.2,37.84,7.51-.5,38.91-3.46,61.81-29.11,24.26-27.19,21.59-60.41,20.6-72.77-1-12-2.91-33.43-19.69-52.66-9.31-10.67-23-19.3-43.47-24.71L239.55,90.6l-16.64,1.23v5.82c-22-2.29-43.76-4.77-65.76-7.05" transform="translate(-10 -12)"/><polyline class="cls-1" points="64.75 133.91 167.75 148.46 123.61 189.22 161.86 174.66 206.01 142.64 105.95 128.08"/><polygon class="cls-1" points="152.66 257.74 150.09 377.16 191.29 355.14 191.29 264.9 152.66 257.74"/><path class="cls-1" d="M201.29,469.18c-5.88-3.06,0-33.44,0-33.44v-68.6l-41.2,20.38a154.63,154.63,0,0,0,25,60.16,35.85,35.85,0,0,1-4.42,33.44c-11.77,17-6.95,32.24-6.95,32.24S174.81,553.45,166,568l9.8-9.36,2.42-2.31c6.33-14.59,5.44-46.55,5.44-48.57l2.94-3.8c2.94,34.93-5.89,50-5.89,50l-1.15,1.11,7.64-7.3a105.87,105.87,0,0,0,5.29-46.7l2.94-2.91s.15,36.38-5.81,47.3l11.69-11.18s5.89-21.57,5.89-50.68C207.18,483.58,207.18,472.24,201.29,469.18Zm-2.6,67.57-2.42,2.32s8-32.2,5-43.84l3-2.92S202,528.78,198.69,536.75Z" transform="translate(-10 -12)"/><path class="cls-1" d="M117,556.33l-1-197.92L71.8,375.87s-2.94,26.2,8.83,40.76c4.55,5.63-.44,10.6-2.3,44.65a8,8,0,0,1-.35,7.87c-.07,1.93-.12,4-.17,6.06a8,8,0,0,1-.11,8.24c0,1,0,2,0,3,0,.27.11,1.78.28,4a8.06,8.06,0,0,1,.59,7.39c.16,2,.33,4.15.5,6.31a8.12,8.12,0,0,1,.55,6.79c.1,1.23.2,2.42.29,3.56a8.1,8.1,0,0,1,.55,7c.11,1.51.18,2.5.18,2.72a64.52,64.52,0,0,0,3.68,13.14c3.4,8.52,7.33,21.79,16.92,21.79C118.89,559.27,117,556.33,117,556.33Z" transform="translate(-10 -12)"/><path class="cls-1" d="M320.92,257.14c-57,41.38-119.63,24.94-119.63,24.94V276.9c35.53,4.64,56.27,3.77,67.69,0" transform="translate(-10 -12)"/></svg>